<?xml version="1.0" encoding="UTF-8"?>
<!DOCTYPE svg PUBLIC "-//W3C//DTD SVG 1.1//EN" "http://www.w3.org/Graphics/SVG/1.1/DTD/svg11.dtd">
<svg xmlns="http://www.w3.org/2000/svg" version="1.1" width="1333px" height="1333px" style="shape-rendering:geometricPrecision; text-rendering:geometricPrecision; image-rendering:optimizeQuality; fill-rule:evenodd; clip-rule:evenodd" xmlns:xlink="http://www.w3.org/1999/xlink">
<g><path style="opacity:0.991" fill="#fa7298" d="M 874.5,23.5 C 959.596,93.2763 1020.93,179.943 1058.5,283.5C 1058.46,285.587 1057.46,286.921 1055.5,287.5C 970.336,257.788 884.169,254.455 797,277.5C 794.632,275.316 793.965,272.649 795,269.5C 799.998,252.505 804.998,235.505 810,218.5C 811.004,215.007 810.504,211.841 808.5,209C 657.151,167.171 516.151,189.504 385.5,276C 376.45,283.385 367.116,290.385 357.5,297C 344.649,308.686 331.649,320.186 318.5,331.5C 288.515,303.348 259.348,274.348 231,244.5C 230.365,242.365 230.699,240.365 232,238.5C 369.336,107.708 533.169,49.208 723.5,63C 764.631,67.0333 804.964,75.0333 844.5,87C 846.833,87.6667 849.167,87.6667 851.5,87C 857.723,69.6641 863.556,52.1641 869,34.5C 870.319,30.5277 872.153,26.8611 874.5,23.5 Z"/></g>
<g><path style="opacity:0.991" fill="#fa7298" d="M 1128.5,270.5 C 1149.09,291.93 1167.26,315.263 1183,340.5C 1208.11,381.378 1228.78,424.044 1245,468.5C 1248.61,480.333 1251.61,492.333 1254,504.5C 1257.25,510.3 1258.92,516.633 1259,523.5C 1260.28,525.717 1261.28,528.051 1262,530.5C 1273,586.33 1276.67,642.663 1273,699.5C 1272.58,729.763 1269.58,759.763 1264,789.5C 1245.16,878.504 1208.49,959.171 1154,1031.5C 1151.93,1034.07 1149.43,1036.07 1146.5,1037.5C 1116.87,1019.37 1088.21,999.869 1060.5,979C 1054.54,975.235 1048.21,972.235 1041.5,970C 1040.98,969.439 1040.64,968.772 1040.5,968C 1072.83,924.564 1099,877.398 1119,826.5C 1146.76,747.263 1153.42,666.263 1139,583.5C 1124.33,509.265 1095,440.932 1051,378.5C 1048.11,373.886 1045.61,369.053 1043.5,364C 1052.14,357.34 1061.47,351.674 1071.5,347C 1077.45,343.44 1082.95,339.274 1088,334.5C 1102.11,315.299 1114.44,294.965 1125,273.5C 1126.15,272.364 1127.31,271.364 1128.5,270.5 Z"/></g>
<g><path style="opacity:0.99" fill="#fa7298" d="M 545.5,309.5 C 551.233,308.895 556.566,310.062 561.5,313C 585.572,335.401 609.405,358.234 633,381.5C 651.225,384.622 669.559,385.288 688,383.5C 692.871,382.923 697.538,381.59 702,379.5C 706.447,376.761 710.613,373.761 714.5,370.5C 734.079,350.752 754.079,331.585 774.5,313C 781.433,309.122 788.767,308.455 796.5,311C 801.353,314.855 805.853,319.022 810,323.5C 810.856,331.232 810.523,338.898 809,346.5C 797.961,359.545 786.127,372.045 773.5,384C 803.51,384.271 833.51,384.938 863.5,386C 879.242,387.025 893.576,392.025 906.5,401C 913.027,407.527 919.527,414.027 926,420.5C 931.456,428.049 936.456,436.049 941,444.5C 943.818,452.258 945.485,460.258 946,468.5C 947.055,535.497 947.888,602.497 948.5,669.5C 948.636,678.57 947.969,687.57 946.5,696.5C 952.594,741.783 937.261,777.616 900.5,804C 894.838,806.497 889.172,808.997 883.5,811.5C 876.814,812.223 870.147,813.057 863.5,814C 836.832,813.169 810.165,813.335 783.5,814.5C 794.316,838.134 805.149,861.801 816,885.5C 835.05,933.315 851.716,981.982 866,1031.5C 867.816,1037.78 866.316,1042.95 861.5,1047C 851.883,1048.19 842.216,1048.86 832.5,1049C 714.162,1049.87 595.829,1049.54 477.5,1048C 476.333,1046.83 475.167,1045.67 474,1044.5C 473.152,1036.38 473.818,1028.38 476,1020.5C 494.758,950.394 518.591,882.06 547.5,815.5C 535.009,814.667 522.509,814 510,813.5C 486.818,816.007 463.984,814.34 441.5,808.5C 425.543,800.686 412.71,789.352 403,774.5C 400.022,769.709 397.189,764.709 394.5,759.5C 391.565,752.986 389.065,746.319 387,739.5C 385.534,648.838 385.201,558.171 386,467.5C 392.225,442.199 404.725,420.699 423.5,403C 426.961,400.847 430.294,398.513 433.5,396C 447.392,390.943 461.726,387.276 476.5,385C 505.089,385.172 533.755,384.839 562.5,384C 552.351,374.184 542.518,364.017 533,353.5C 519.734,339.285 520.567,325.785 535.5,313C 538.85,311.514 542.184,310.347 545.5,309.5 Z M 494.5,429.5 C 605.167,429.333 715.834,429.5 826.5,430C 841.195,430.172 855.862,430.839 870.5,432C 883.658,437.158 892.825,446.325 898,459.5C 899.894,478.776 900.894,498.109 901,517.5C 901.863,587.841 901.529,658.174 900,728.5C 898.568,744.527 891.068,756.693 877.5,765C 858.226,767.546 838.892,768.046 819.5,766.5C 814.509,767.09 809.509,767.59 804.5,768C 696.833,768.177 589.166,767.843 481.5,767C 474.551,765.878 467.551,765.211 460.5,765C 447.577,759.691 439.41,750.191 436,736.5C 433.976,719.235 432.642,701.902 432,684.5C 431.333,632.167 431.333,579.833 432,527.5C 431.818,502.546 433.818,477.879 438,453.5C 443.898,443.15 452.398,435.983 463.5,432C 472.833,431.667 482.167,431.333 491.5,431C 492.737,430.768 493.737,430.268 494.5,429.5 Z M 607.5,814.5 C 617.167,814.5 626.833,814.5 636.5,814.5C 633.475,828.933 629.975,843.267 626,857.5C 619.535,843.266 613.369,828.932 607.5,814.5 Z M 693.5,814.5 C 702.506,814.334 711.506,814.5 720.5,815C 713.871,829.092 707.371,843.258 701,857.5C 696.952,844.268 693.785,830.768 691.5,817C 692.056,815.989 692.722,815.156 693.5,814.5 Z"/></g>
<g><path style="opacity:0.991" fill="#fa7298" d="M 159.5,328.5 C 161.527,328.338 163.527,328.505 165.5,329C 198.763,348.603 231.763,368.603 264.5,389C 266.613,389.872 267.946,391.372 268.5,393.5C 253.698,419.186 239.865,445.52 227,472.5C 222.871,481.113 219.537,490.113 217,499.5C 216.163,501.844 214.829,503.844 213,505.5C 212.667,508.5 212.333,511.5 212,514.5C 209.063,517.884 207.729,521.884 208,526.5C 206.234,528.596 204.901,530.929 204,533.5C 190.609,582.63 184.275,632.63 185,683.5C 187.021,710.336 190.355,737.003 195,763.5C 201.134,790.025 209.134,816.025 219,841.5C 240.453,893.527 269.119,940.86 305,983.5C 307.335,986.166 309.169,989.166 310.5,992.5C 308.543,994.485 306.21,995.985 303.5,997C 275.536,1001.87 249.869,1012.2 226.5,1028C 217.115,1037.1 207.282,1045.6 197,1053.5C 195.056,1052.56 193.389,1051.23 192,1049.5C 175.226,1028.06 159.226,1006.06 144,983.5C 121.409,943.653 102.076,902.32 86,859.5C 80.5119,839.215 75.1786,818.881 70,798.5C 60.842,751.791 57.0086,704.624 58.5,657C 58.4747,636.818 58.9747,616.651 60,596.5C 63.3911,567.151 68.3911,538.151 75,509.5C 76.7398,508.284 77.7398,506.618 78,504.5C 80.3899,492.333 83.3899,480.333 87,468.5C 102.28,427.925 120.947,388.592 143,350.5C 148.395,342.959 153.895,335.626 159.5,328.5 Z"/></g>
<g><path style="opacity:0.976" fill="#fa7298" d="M 721.5,538.5 C 763.313,545.244 801.98,560.077 837.5,583C 844.477,591.882 845.31,601.382 840,611.5C 832.951,622.941 822.785,627.775 809.5,626C 778.294,617.821 748.294,606.487 719.5,592C 702.528,582.775 698.694,569.608 708,552.5C 711.359,546.643 715.859,541.976 721.5,538.5 Z"/></g>
<g><path style="opacity:0.978" fill="#fa7298" d="M 588.5,543.5 C 612.094,539.109 625.094,548.776 627.5,572.5C 627.547,575.295 627.047,577.961 626,580.5C 620.798,585.847 614.965,590.347 608.5,594C 581.549,608.539 553.216,619.539 523.5,627C 517.224,628.424 510.891,628.758 504.5,628C 497.904,623.406 492.738,617.573 489,610.5C 488.333,603.833 488.333,597.167 489,590.5C 494.073,581.431 501.573,575.265 511.5,572C 536.582,560.588 562.249,551.088 588.5,543.5 Z"/></g>
<g><path style="opacity:0.961" fill="#fa7298" d="M 703.5,636.5 C 711.154,635.243 716.321,638.243 719,645.5C 719.667,650.833 719.667,656.167 719,661.5C 705.607,681.853 687.607,687.187 665,677.5C 660.241,679.795 655.408,681.962 650.5,684C 646.5,684.667 642.5,684.667 638.5,684C 625.264,678.432 614.764,669.599 607,657.5C 605.058,648.886 607.892,642.386 615.5,638C 620.111,636.993 624.445,637.66 628.5,640C 633.687,644.688 639.02,649.188 644.5,653.5C 647.668,646.833 652.668,641.999 659.5,639C 662.833,638.333 666.167,638.333 669.5,639C 675.241,642.077 680.408,645.91 685,650.5C 691.056,645.6 697.223,640.933 703.5,636.5 Z"/></g>
<g><path style="opacity:0.991" fill="#fa7298" d="M 436.5,1332.5 C 435.5,1332.5 434.5,1332.5 433.5,1332.5C 352.971,1263.44 293.138,1179.44 254,1080.5C 253.333,1077.17 253.333,1073.83 254,1070.5C 254.561,1069.98 255.228,1069.64 256,1069.5C 294.66,1081.57 334.16,1089.4 374.5,1093C 419.655,1095.72 463.989,1091.06 507.5,1079C 510.482,1078.5 513.482,1078.34 516.5,1078.5C 516.039,1084.3 514.873,1089.97 513,1095.5C 506.947,1110.38 502.447,1125.71 499.5,1141.5C 499.833,1142.83 500.167,1144.17 500.5,1145.5C 545.052,1159.76 590.719,1166.76 637.5,1166.5C 770.677,1167.07 885.677,1122.24 982.5,1032C 987.833,1028.67 993.167,1028.67 998.5,1032C 1025.97,1057.14 1052.47,1083.3 1078,1110.5C 1078.67,1111.83 1078.67,1113.17 1078,1114.5C 1065.47,1128.7 1051.97,1141.87 1037.5,1154C 892.903,1269.24 728.57,1313.58 544.5,1287C 516.388,1282.34 488.721,1275.84 461.5,1267.5C 459.282,1268.92 457.782,1270.92 457,1273.5C 450.654,1293.37 443.821,1313.04 436.5,1332.5 Z"/></g>
</svg>
